<svg xmlns="http://www.w3.org/2000/svg" width="1280" height="720" viewBox="0 0 1280 720" role="img" aria-labelledby="title desc">
  <title id="title">Logarithmic volume curve</title>
  <desc id="desc">A minimal logarithmic curve graph.</desc>

  <defs>
    <linearGradient id="bg" x1="0" y1="0" x2="1" y2="1">
      <stop offset="0" stop-color="#101010"/>
      <stop offset="1" stop-color="#181818"/>
    </linearGradient>
    <linearGradient id="curve" x1="210" y1="520" x2="1070" y2="170" gradientUnits="userSpaceOnUse">
      <stop offset="0" stop-color="#1ed760"/>
      <stop offset="0.58" stop-color="#73eba0"/>
      <stop offset="1" stop-color="#ffffff"/>
    </linearGradient>
    <filter id="glow" x="-10%" y="-40%" width="120%" height="180%">
      <feGaussianBlur stdDeviation="9" result="blur"/>
      <feMerge>
        <feMergeNode in="blur"/>
        <feMergeNode in="SourceGraphic"/>
      </feMerge>
    </filter>
  </defs>

  <rect width="1280" height="720" fill="url(#bg)"/>
  <rect x="136" y="92" width="1008" height="536" rx="44" fill="#151515" stroke="#2d2d2d" stroke-width="3"/>

  <g fill="none" stroke-linecap="round" stroke-linejoin="round">
    <path d="M210 520H1070" stroke="#343434" stroke-width="8"/>
    <path d="M210 520V170" stroke="#343434" stroke-width="8"/>
    <path d="M210 432H1070 M210 344H1070 M210 256H1070" stroke="#242424" stroke-width="3"/>
    <path d="M425 520V170 M640 520V170 M855 520V170" stroke="#242424" stroke-width="3"/>
    <path d="M 210.0 520.0 L 231.5 481.2 L 253.0 451.4 L 274.5 427.2 L 296.0 406.9 L 317.5 389.3 L 339.0 373.8 L 360.5 359.9 L 382.0 347.5 L 403.5 336.1 L 425.0 325.6 L 446.5 315.9 L 468.0 306.9 L 489.5 298.5 L 511.0 290.6 L 532.5 283.1 L 554.0 276.1 L 575.5 269.4 L 597.0 263.1 L 618.5 257.0 L 640.0 251.2 L 661.5 245.7 L 683.0 240.4 L 704.5 235.3 L 726.0 230.4 L 747.5 225.7 L 769.0 221.1 L 790.5 216.7 L 812.0 212.5 L 833.5 208.3 L 855.0 204.3 L 876.5 200.5 L 898.0 196.7 L 919.5 193.0 L 941.0 189.5 L 962.5 186.0 L 984.0 182.7 L 1005.5 179.4 L 1027.0 176.2 L 1048.5 173.1 L 1070.0 170.0" stroke="#1ed760" stroke-width="34" opacity="0.22" filter="url(#glow)"/>
    <path d="M 210.0 520.0 L 231.5 481.2 L 253.0 451.4 L 274.5 427.2 L 296.0 406.9 L 317.5 389.3 L 339.0 373.8 L 360.5 359.9 L 382.0 347.5 L 403.5 336.1 L 425.0 325.6 L 446.5 315.9 L 468.0 306.9 L 489.5 298.5 L 511.0 290.6 L 532.5 283.1 L 554.0 276.1 L 575.5 269.4 L 597.0 263.1 L 618.5 257.0 L 640.0 251.2 L 661.5 245.7 L 683.0 240.4 L 704.5 235.3 L 726.0 230.4 L 747.5 225.7 L 769.0 221.1 L 790.5 216.7 L 812.0 212.5 L 833.5 208.3 L 855.0 204.3 L 876.5 200.5 L 898.0 196.7 L 919.5 193.0 L 941.0 189.5 L 962.5 186.0 L 984.0 182.7 L 1005.5 179.4 L 1027.0 176.2 L 1048.5 173.1 L 1070.0 170.0" stroke="url(#curve)" stroke-width="18"/>
    <path d="M 225.0 492.9 L 231.5 481.2 L 253.0 451.4 L 274.5 427.2 L 296.0 406.9 L 317.5 389.3" stroke="#ffffff" stroke-width="5" opacity="0.55"/>
  </g>
</svg>
